<?xml version="1.0" encoding="utf-8"?>
<!-- Generator: Adobe Illustrator 27.6.0, SVG Export Plug-In . SVG Version: 6.00 Build 0)  -->
<svg version="1.1" id="Layer_1" xmlns="http://www.w3.org/2000/svg" xmlns:xlink="http://www.w3.org/1999/xlink" x="0px" y="0px"
	 viewBox="0 0 300 170" style="enable-background:new 0 0 300 170;" xml:space="preserve">
<style type="text/css">
	.st0{fill:#FFFFFF;}
	.st1{fill:#084F95;}
	.st2{fill:none;stroke:#084F95;stroke-width:9;stroke-miterlimit:10;}
	.st3{fill:none;stroke:#084F95;stroke-width:11;stroke-miterlimit:10;}
</style>
<g>
	<rect x="4.5" y="4.5" class="st0" width="291" height="161"/>
	<path class="st1" d="M291,9v152H9V9H291 M300,0H0v170h300V0L300,0z"/>
</g>
<path class="st1" d="M83.68,115.59c0.17-0.01,0.34-0.03,0.52-0.04c0.28-0.02,0.56-0.05,0.84-0.08C109.24,112.9,150,85,150,85
	s-40.76-27.9-64.96-30.48c-0.28-0.03-0.56-0.05-0.84-0.08c-0.17-0.01-0.35-0.03-0.52-0.04c-0.24-0.02-0.48-0.03-0.73-0.04
	c-0.44-0.02-0.88-0.03-1.31-0.03c-16.94,0-30.67,13.73-30.67,30.67c0,16.94,13.73,30.67,30.67,30.67c0.43,0,0.87-0.01,1.31-0.03
	C83.2,115.62,83.44,115.61,83.68,115.59z"/>
<path class="st1" d="M216.32,54.41c-0.17,0.01-0.34,0.03-0.52,0.04c-0.28,0.02-0.56,0.05-0.84,0.08C190.76,57.1,150,85,150,85
	s40.76,27.9,64.96,30.48c0.28,0.03,0.56,0.05,0.84,0.08c0.17,0.01,0.35,0.03,0.52,0.04c0.24,0.02,0.48,0.03,0.73,0.04
	c0.44,0.02,0.88,0.03,1.31,0.03c16.94,0,30.67-13.73,30.67-30.67c0-16.94-13.73-30.67-30.67-30.67c-0.43,0-0.87,0.01-1.31,0.03
	C216.8,54.38,216.56,54.39,216.32,54.41z"/>
</svg>
