<?xml version="1.0" encoding="utf-8"?>
<!-- Generator: Adobe Illustrator 27.6.0, SVG Export Plug-In . SVG Version: 6.00 Build 0)  -->
<svg version="1.1" id="Layer_1" xmlns="http://www.w3.org/2000/svg" xmlns:xlink="http://www.w3.org/1999/xlink" x="0px" y="0px"
	 viewBox="0 0 300 170" style="enable-background:new 0 0 300 170;" xml:space="preserve">
<style type="text/css">
	.st0{fill:#FFFFFF;}
	.st1{fill:#084F95;}
	.st2{fill:none;stroke:#084F95;stroke-width:9;stroke-miterlimit:10;}
	.st3{fill:none;stroke:#084F95;stroke-width:11;stroke-miterlimit:10;}
</style>
<g>
	<rect x="4.5" y="4.5" class="st0" width="291" height="161"/>
	<path class="st1" d="M291,9v152H9V9H291 M300,0H0v170h300V0L300,0z"/>
</g>
<line class="st2" x1="0" y1="170" x2="300" y2="0"/>
<line class="st2" x1="0" y1="0" x2="300" y2="170"/>
<g>
	<path class="st1" d="M150,133.19c4.31,0,7.82,3.51,7.82,7.82s-3.51,7.82-7.82,7.82s-7.82-3.51-7.82-7.82S145.69,133.19,150,133.19
		 M150,124.19c-9.29,0-16.82,7.53-16.82,16.82s7.53,16.82,16.82,16.82c9.29,0,16.82-7.53,16.82-16.82S159.29,124.19,150,124.19
		L150,124.19z"/>
</g>
<g>
	<path class="st1" d="M193.64,133.19c4.31,0,7.82,3.51,7.82,7.82s-3.51,7.82-7.82,7.82s-7.82-3.51-7.82-7.82
		S189.33,133.19,193.64,133.19 M193.64,124.19c-9.29,0-16.82,7.53-16.82,16.82s7.53,16.82,16.82,16.82
		c9.29,0,16.82-7.53,16.82-16.82S202.93,124.19,193.64,124.19L193.64,124.19z"/>
</g>
<g>
	<path class="st1" d="M106.36,133.19c4.31,0,7.82,3.51,7.82,7.82s-3.51,7.82-7.82,7.82s-7.82-3.51-7.82-7.82
		S102.05,133.19,106.36,133.19 M106.36,124.19c-9.29,0-16.82,7.53-16.82,16.82s7.53,16.82,16.82,16.82
		c9.29,0,16.82-7.53,16.82-16.82S115.65,124.19,106.36,124.19L106.36,124.19z"/>
</g>
</svg>
