<?xml version="1.0" encoding="utf-8"?>
<!-- Generator: Adobe Illustrator 27.6.0, SVG Export Plug-In . SVG Version: 6.00 Build 0)  -->
<svg version="1.1" id="Layer_1" xmlns="http://www.w3.org/2000/svg" xmlns:xlink="http://www.w3.org/1999/xlink" x="0px" y="0px"
	 viewBox="0 0 300 170" style="enable-background:new 0 0 300 170;" xml:space="preserve">
<style type="text/css">
	.st0{fill:#FFFFFF;}
	.st1{fill:#084F95;}
	.st2{fill:none;stroke:#084F95;stroke-width:9;stroke-miterlimit:10;}
	.st3{fill:none;stroke:#084F95;stroke-width:11;stroke-miterlimit:10;}
</style>
<g>
	<rect x="4.5" y="4.5" class="st0" width="291" height="161"/>
	<path class="st1" d="M291,9v152H9V9H291 M300,0H0v170h300V0L300,0z"/>
</g>
<g>
	<path class="st1" d="M151,92.88v10.4c0,9.4-6.3,15.7-15.6,15.7h-23.5c-9.4,0-15.7-6.3-15.7-15.7v-6.3h15.5v5.5c0,2,1,3,3,3h17.8
		c2,0,3-1,3-3v-8.8c0-2-1-3-3-3h-20.7c-9.3,0-15.6-6.3-15.6-15.7v-10.3c0-9.4,6.3-15.7,15.6-15.7h23.5c9.4,0,15.7,6.3,15.7,15.7v6.3
		h-15.5v-5.5c0-2-1-3-3-3h-17.8c-2,0-3,1-3,3v8.7c0,2,1,3,3,3h20.7C144.7,77.18,151,83.48,151,92.88z"/>
	<path class="st1" d="M163,48.98h46.8v13.5h-31.3v17.7h26.3v13.5h-26.3v25.3H163V48.98z"/>
</g>
</svg>
