<?xml version="1.0" encoding="utf-8"?>
<!-- Generator: Adobe Illustrator 27.6.0, SVG Export Plug-In . SVG Version: 6.00 Build 0)  -->
<svg version="1.1" id="Layer_1" xmlns="http://www.w3.org/2000/svg" xmlns:xlink="http://www.w3.org/1999/xlink" x="0px" y="0px"
	 viewBox="0 0 650 650" style="enable-background:new 0 0 650 650;" xml:space="preserve">
<style type="text/css">
	.st0{fill:#C1282D;}
	.st1{fill:#EC2227;}
	.st2{fill:#010101;}
</style>
<path class="st0" d="M509.38,232.98c0-17.05,2.33-78.79-26.38-74.2c-21,3.36-59.48,22.01-78.62,31.77
	c-25.84-15.52-53.75-24.27-80.43-24.27c0,0-39.92,1.32-82.71,22.29c-20.09-10.11-55.06-26.66-74.72-29.8
	c-28.71-4.59-26.38,57.15-26.38,74.2c0,12.57,1.29,30.58,14.7,45.77c-10.12,24.23-16.32,53.67-16.32,89.46
	c0,126.97,139.49,126.85,186.08,126.85s184.78-5.07,184.78-121.23c0-32.18-7.62-62.45-20.46-89.41
	C507.73,268.25,509.38,247.16,509.38,232.98z"/>
<path class="st1" d="M415.36,345.87c-25.06-23.13-91.28-20.24-91.28-20.24s-66.22-2.88-91.28,20.24s-12.17,94.56,27.64,114.89
	s51.81,18.3,63.64,18.3c11.83,0,23.84,2.03,63.64-18.3S440.42,368.99,415.36,345.87z"/>
<path class="st1" d="M433.51,206.82c0,0,39.53,30.29,51.74,63.67c0,0,11.17-52.79,0.88-76.89c-4.12-9.7-10.29-7.94-22.34-2.65
	C451.73,196.23,433.51,206.82,433.51,206.82z"/>
<path class="st1" d="M214.12,206.82c0,0-39.53,30.29-51.74,63.67c0,0-11.17-52.79-0.88-76.89c4.12-9.7,10.29-7.94,22.34-2.65
	C195.89,196.23,214.12,206.82,214.12,206.82z"/>
<ellipse class="st2" cx="277.51" cy="397.61" rx="15.96" ry="26.16"/>
<ellipse class="st2" cx="370.41" cy="397.61" rx="15.96" ry="26.16"/>
<circle class="st2" cx="210.78" cy="303.21" r="21.23"/>
<circle class="st2" cx="438.34" cy="303.21" r="21.23"/>
</svg>
